<svg xmlns="http://www.w3.org/2000/svg" viewBox="0 0 320 320" width="320" height="320">
  <rect width="320" height="320" fill="#2a2622"/>
  <rect x="22.4" y="99.2" width="275.2" height="44.2" rx="4.5" fill="#b9aa8c"/>
  <polygon points="22.4,143.4 297.6,143.4 297.6,246.4 22.4,246.4" fill="#d8ccb2"/>
  <rect x="243.9" y="111.1" width="8.3" height="20.3" fill="#6f4a9c"/>
  <rect x="252.2" y="111.1" width="8.3" height="20.3" fill="#c8403c"/>
  <rect x="260.4" y="111.1" width="8.3" height="20.3" fill="#e39a36"/>
  <rect x="268.7" y="111.1" width="8.3" height="20.3" fill="#4f9d55"/>
  <rect x="277.0" y="111.1" width="8.3" height="20.3" fill="#3d79bd"/>
  <rect x="37.1" y="158.3" width="16.3" height="14.5" rx="3.5" fill="#57535f"/>
  <rect x="57.9" y="158.3" width="16.3" height="14.5" rx="3.5" fill="#3f3c44"/>
  <rect x="78.8" y="158.3" width="16.3" height="14.5" rx="3.5" fill="#57535f"/>
  <rect x="99.7" y="158.3" width="16.3" height="14.5" rx="3.5" fill="#3f3c44"/>
  <rect x="120.6" y="158.3" width="16.3" height="14.5" rx="3.5" fill="#57535f"/>
  <rect x="141.4" y="158.3" width="16.3" height="14.5" rx="3.5" fill="#3f3c44"/>
  <rect x="162.3" y="158.3" width="16.3" height="14.5" rx="3.5" fill="#57535f"/>
  <rect x="183.2" y="158.3" width="16.3" height="14.5" rx="3.5" fill="#3f3c44"/>
  <rect x="204.0" y="158.3" width="16.3" height="14.5" rx="3.5" fill="#57535f"/>
  <rect x="224.9" y="158.3" width="16.3" height="14.5" rx="3.5" fill="#3f3c44"/>
  <rect x="245.8" y="158.3" width="16.3" height="14.5" rx="3.5" fill="#57535f"/>
  <rect x="266.6" y="158.3" width="16.3" height="14.5" rx="3.5" fill="#3f3c44"/>
  <rect x="37.1" y="177.8" width="16.3" height="14.5" rx="3.5" fill="#3f3c44"/>
  <rect x="57.9" y="177.8" width="16.3" height="14.5" rx="3.5" fill="#57535f"/>
  <rect x="78.8" y="177.8" width="16.3" height="14.5" rx="3.5" fill="#3f3c44"/>
  <rect x="99.7" y="177.8" width="16.3" height="14.5" rx="3.5" fill="#57535f"/>
  <rect x="120.6" y="177.8" width="16.3" height="14.5" rx="3.5" fill="#3f3c44"/>
  <rect x="141.4" y="177.8" width="16.3" height="14.5" rx="3.5" fill="#57535f"/>
  <rect x="162.3" y="177.8" width="16.3" height="14.5" rx="3.5" fill="#3f3c44"/>
  <rect x="183.2" y="177.8" width="16.3" height="14.5" rx="3.5" fill="#57535f"/>
  <rect x="204.0" y="177.8" width="16.3" height="14.5" rx="3.5" fill="#3f3c44"/>
  <rect x="224.9" y="177.8" width="16.3" height="14.5" rx="3.5" fill="#57535f"/>
  <rect x="245.8" y="177.8" width="16.3" height="14.5" rx="3.5" fill="#3f3c44"/>
  <rect x="266.6" y="177.8" width="16.3" height="14.5" rx="3.5" fill="#57535f"/>
  <rect x="37.1" y="197.4" width="16.3" height="14.5" rx="3.5" fill="#57535f"/>
  <rect x="57.9" y="197.4" width="16.3" height="14.5" rx="3.5" fill="#3f3c44"/>
  <rect x="78.8" y="197.4" width="16.3" height="14.5" rx="3.5" fill="#57535f"/>
  <rect x="99.7" y="197.4" width="16.3" height="14.5" rx="3.5" fill="#3f3c44"/>
  <rect x="120.6" y="197.4" width="16.3" height="14.5" rx="3.5" fill="#57535f"/>
  <rect x="141.4" y="197.4" width="16.3" height="14.5" rx="3.5" fill="#3f3c44"/>
  <rect x="162.3" y="197.4" width="16.3" height="14.5" rx="3.5" fill="#57535f"/>
  <rect x="183.2" y="197.4" width="16.3" height="14.5" rx="3.5" fill="#3f3c44"/>
  <rect x="204.0" y="197.4" width="16.3" height="14.5" rx="3.5" fill="#57535f"/>
  <rect x="224.9" y="197.4" width="16.3" height="14.5" rx="3.5" fill="#3f3c44"/>
  <rect x="245.8" y="197.4" width="16.3" height="14.5" rx="3.5" fill="#57535f"/>
  <rect x="266.6" y="197.4" width="16.3" height="14.5" rx="3.5" fill="#3f3c44"/>
  <rect x="37.1" y="217.0" width="16.3" height="14.5" rx="3.5" fill="#3f3c44"/>
  <rect x="57.9" y="217.0" width="16.3" height="14.5" rx="3.5" fill="#57535f"/>
  <rect x="78.8" y="217.0" width="16.3" height="14.5" rx="3.5" fill="#3f3c44"/>
  <rect x="99.7" y="217.0" width="16.3" height="14.5" rx="3.5" fill="#57535f"/>
  <rect x="120.6" y="217.0" width="16.3" height="14.5" rx="3.5" fill="#3f3c44"/>
  <rect x="141.4" y="217.0" width="16.3" height="14.5" rx="3.5" fill="#57535f"/>
  <rect x="162.3" y="217.0" width="16.3" height="14.5" rx="3.5" fill="#3f3c44"/>
  <rect x="183.2" y="217.0" width="16.3" height="14.5" rx="3.5" fill="#57535f"/>
  <rect x="204.0" y="217.0" width="16.3" height="14.5" rx="3.5" fill="#3f3c44"/>
  <rect x="224.9" y="217.0" width="16.3" height="14.5" rx="3.5" fill="#57535f"/>
  <rect x="245.8" y="217.0" width="16.3" height="14.5" rx="3.5" fill="#3f3c44"/>
  <rect x="266.6" y="217.0" width="16.3" height="14.5" rx="3.5" fill="#57535f"/>
</svg>
