<svg xmlns="http://www.w3.org/2000/svg" viewBox="0 0 1280 800" width="1280" height="800">
  <rect width="1280" height="800" fill="#2a2622"/>
  <rect x="89.6" y="248.0" width="1100.8" height="110.4" rx="11.2" fill="#b9aa8c"/>
  <polygon points="89.6,358.4 1190.4,358.4 1190.4,616.0 89.6,616.0" fill="#d8ccb2"/>
  <rect x="975.7" y="277.8" width="33.0" height="50.8" fill="#6f4a9c"/>
  <rect x="1008.8" y="277.8" width="33.0" height="50.8" fill="#c8403c"/>
  <rect x="1041.8" y="277.8" width="33.0" height="50.8" fill="#e39a36"/>
  <rect x="1074.8" y="277.8" width="33.0" height="50.8" fill="#4f9d55"/>
  <rect x="1107.8" y="277.8" width="33.0" height="50.8" fill="#3d79bd"/>
  <rect x="148.3" y="395.7" width="65.1" height="36.2" rx="8.8" fill="#57535f"/>
  <rect x="231.8" y="395.7" width="65.1" height="36.2" rx="8.8" fill="#3f3c44"/>
  <rect x="315.3" y="395.7" width="65.1" height="36.2" rx="8.8" fill="#57535f"/>
  <rect x="398.8" y="395.7" width="65.1" height="36.2" rx="8.8" fill="#3f3c44"/>
  <rect x="482.2" y="395.7" width="65.1" height="36.2" rx="8.8" fill="#57535f"/>
  <rect x="565.7" y="395.7" width="65.1" height="36.2" rx="8.8" fill="#3f3c44"/>
  <rect x="649.2" y="395.7" width="65.1" height="36.2" rx="8.8" fill="#57535f"/>
  <rect x="732.7" y="395.7" width="65.1" height="36.2" rx="8.8" fill="#3f3c44"/>
  <rect x="816.1" y="395.7" width="65.1" height="36.2" rx="8.8" fill="#57535f"/>
  <rect x="899.6" y="395.7" width="65.1" height="36.2" rx="8.8" fill="#3f3c44"/>
  <rect x="983.1" y="395.7" width="65.1" height="36.2" rx="8.8" fill="#57535f"/>
  <rect x="1066.6" y="395.7" width="65.1" height="36.2" rx="8.8" fill="#3f3c44"/>
  <rect x="148.3" y="444.6" width="65.1" height="36.2" rx="8.8" fill="#3f3c44"/>
  <rect x="231.8" y="444.6" width="65.1" height="36.2" rx="8.8" fill="#57535f"/>
  <rect x="315.3" y="444.6" width="65.1" height="36.2" rx="8.8" fill="#3f3c44"/>
  <rect x="398.8" y="444.6" width="65.1" height="36.2" rx="8.8" fill="#57535f"/>
  <rect x="482.2" y="444.6" width="65.1" height="36.2" rx="8.8" fill="#3f3c44"/>
  <rect x="565.7" y="444.6" width="65.1" height="36.2" rx="8.8" fill="#57535f"/>
  <rect x="649.2" y="444.6" width="65.1" height="36.2" rx="8.8" fill="#3f3c44"/>
  <rect x="732.7" y="444.6" width="65.1" height="36.2" rx="8.8" fill="#57535f"/>
  <rect x="816.1" y="444.6" width="65.1" height="36.2" rx="8.8" fill="#3f3c44"/>
  <rect x="899.6" y="444.6" width="65.1" height="36.2" rx="8.8" fill="#57535f"/>
  <rect x="983.1" y="444.6" width="65.1" height="36.2" rx="8.8" fill="#3f3c44"/>
  <rect x="1066.6" y="444.6" width="65.1" height="36.2" rx="8.8" fill="#57535f"/>
  <rect x="148.3" y="493.6" width="65.1" height="36.2" rx="8.8" fill="#57535f"/>
  <rect x="231.8" y="493.6" width="65.1" height="36.2" rx="8.8" fill="#3f3c44"/>
  <rect x="315.3" y="493.6" width="65.1" height="36.2" rx="8.8" fill="#57535f"/>
  <rect x="398.8" y="493.6" width="65.1" height="36.2" rx="8.8" fill="#3f3c44"/>
  <rect x="482.2" y="493.6" width="65.1" height="36.2" rx="8.8" fill="#57535f"/>
  <rect x="565.7" y="493.6" width="65.1" height="36.2" rx="8.8" fill="#3f3c44"/>
  <rect x="649.2" y="493.6" width="65.1" height="36.2" rx="8.8" fill="#57535f"/>
  <rect x="732.7" y="493.6" width="65.1" height="36.2" rx="8.8" fill="#3f3c44"/>
  <rect x="816.1" y="493.6" width="65.1" height="36.2" rx="8.8" fill="#57535f"/>
  <rect x="899.6" y="493.6" width="65.1" height="36.2" rx="8.8" fill="#3f3c44"/>
  <rect x="983.1" y="493.6" width="65.1" height="36.2" rx="8.8" fill="#57535f"/>
  <rect x="1066.6" y="493.6" width="65.1" height="36.2" rx="8.8" fill="#3f3c44"/>
  <rect x="148.3" y="542.5" width="65.1" height="36.2" rx="8.8" fill="#3f3c44"/>
  <rect x="231.8" y="542.5" width="65.1" height="36.2" rx="8.8" fill="#57535f"/>
  <rect x="315.3" y="542.5" width="65.1" height="36.2" rx="8.8" fill="#3f3c44"/>
  <rect x="398.8" y="542.5" width="65.1" height="36.2" rx="8.8" fill="#57535f"/>
  <rect x="482.2" y="542.5" width="65.1" height="36.2" rx="8.8" fill="#3f3c44"/>
  <rect x="565.7" y="542.5" width="65.1" height="36.2" rx="8.8" fill="#57535f"/>
  <rect x="649.2" y="542.5" width="65.1" height="36.2" rx="8.8" fill="#3f3c44"/>
  <rect x="732.7" y="542.5" width="65.1" height="36.2" rx="8.8" fill="#57535f"/>
  <rect x="816.1" y="542.5" width="65.1" height="36.2" rx="8.8" fill="#3f3c44"/>
  <rect x="899.6" y="542.5" width="65.1" height="36.2" rx="8.8" fill="#57535f"/>
  <rect x="983.1" y="542.5" width="65.1" height="36.2" rx="8.8" fill="#3f3c44"/>
  <rect x="1066.6" y="542.5" width="65.1" height="36.2" rx="8.8" fill="#57535f"/>
</svg>
